HIERARCHY
ROOT Hips
{
	OFFSET -0.001795 -0.223333 0.028219
	CHANNELS 6 Xposition Yposition Zposition Zrotation Yrotation Xrotation 
	JOINT LeftUpLeg
	{
		OFFSET 0.069520 -0.091406 -0.006815
		CHANNELS 3 Zrotation Yrotation Xrotation
		JOINT LeftLeg
		{
			OFFSET 0.034277 -0.375199 -0.004496
			CHANNELS 3 Zrotation Yrotation Xrotation
			JOINT LeftFoot
			{
				OFFSET -0.013596 -0.397961 -0.043693
				CHANNELS 3 Zrotation Yrotation Xrotation
				JOINT LeftToe
				{
					OFFSET 0.026358 -0.055791 0.119288
					CHANNELS 3 Zrotation Yrotation Xrotation
					End Site
					{
						OFFSET 0.000000 0.000000 0.000000
					}
				}
			}
		}
	}
	JOINT RightUpLeg
	{
		OFFSET -0.067670 -0.090522 -0.004320
		CHANNELS 3 Zrotation Yrotation Xrotation
		JOINT RightLeg
		{
			OFFSET -0.038290 -0.382569 -0.008850
			CHANNELS 3 Zrotation Yrotation Xrotation
			JOINT RightFoot
			{
				OFFSET 0.015774 -0.398415 -0.042312
				CHANNELS 3 Zrotation Yrotation Xrotation
				JOINT RightToe
				{
					OFFSET -0.025372 -0.048144 0.123348
					CHANNELS 3 Zrotation Yrotation Xrotation
					End Site
					{
						OFFSET 0.000000 0.000000 0.000000
					}
				}
			}
		}
	}
	JOINT Spine
	{
		OFFSET -0.002533 0.108963 -0.026696
		CHANNELS 3 Zrotation Yrotation Xrotation
		JOINT Spine1
		{
			OFFSET 0.005487 0.135180 0.001092
			CHANNELS 3 Zrotation Yrotation Xrotation
			JOINT Spine2
			{
				OFFSET 0.001457 0.052922 0.025425
				CHANNELS 3 Zrotation Yrotation Xrotation
				JOINT Neck
				{
					OFFSET -0.002778 0.213870 -0.042857
					CHANNELS 3 Zrotation Yrotation Xrotation
					JOINT Head
					{
						OFFSET 0.005152 0.064970 0.051349
						CHANNELS 3 Zrotation Yrotation Xrotation
						End Site
						{
							OFFSET 0.000000 0.000000 0.000000
						}
					}
				}
				JOINT LeftShoulder
				{
					OFFSET 0.078845 0.121749 -0.034090
					CHANNELS 3 Zrotation Yrotation Xrotation
					JOINT LeftArm
					{
						OFFSET 0.090977 0.030469 -0.008868
						CHANNELS 3 Zrotation Yrotation Xrotation
						JOINT LeftForeArm
						{
							OFFSET 0.259612 -0.012772 -0.027456
							CHANNELS 3 Zrotation Yrotation Xrotation
							JOINT LeftHand
							{
								OFFSET 0.249234 0.008986 -0.001171
								CHANNELS 3 Zrotation Yrotation Xrotation
								End Site
								{
									OFFSET 0.000000 0.000000 0.000000
								}
							}
						}
					}
				}
				JOINT RightShoulder
				{
					OFFSET -0.081759 0.118833 -0.038615
					CHANNELS 3 Zrotation Yrotation Xrotation
					JOINT RightArm
					{
						OFFSET -0.096012 0.032551 -0.009143
						CHANNELS 3 Zrotation Yrotation Xrotation
						JOINT RightForeArm
						{
							OFFSET -0.253742 -0.013329 -0.021401
							CHANNELS 3 Zrotation Yrotation Xrotation
							JOINT RightHand
							{
								OFFSET -0.255298 0.007772 -0.005559
								CHANNELS 3 Zrotation Yrotation Xrotation
								End Site
								{
									OFFSET 0.000000 0.000000 0.000000
								}
							}
						}
					}
				}
			}
		}
	}
}
MOTION
Frames: 7
Frame Time: 0.050000
0.000000 0.745231 0.000000 3.260977 18.084042 15.722505 22.928386 -0.348537 -43.863503 -38.643303 20.230346 61.191301 19.485699 42.839368 -7.135044 0.000000 0.000000 0.000000 -9.674652 -7.565918 -70.395735 11.699835 -13.101391 79.171315 -6.183780 -14.060114 -5.544151 0.000000 0.000000 0.000000 6.333597 -13.730325 61.326305 -4.450584 1.793041 -25.640539 5.365882 7.944303 21.802577 10.758677 -3.039910 -22.731771 0.000000 0.000000 0.000000 -2.225315 -32.476194 11.484164 -1.513825 -22.219679 -2.127234 24.569033 -13.841709 -2.968286 0.000000 0.000000 0.000000 24.156301 35.602488 25.914186 -14.717687 43.545163 -8.565063 -11.793130 -0.991121 0.261085 0.000000 0.000000 0.000000 
0.000802 0.757085 -0.002821 3.098616 17.895960 15.559674 23.539647 -0.100011 -43.313842 -38.828819 19.221769 57.581270 18.913109 38.711280 -1.161299 0.000000 0.000000 0.000000 -7.821021 -5.976547 -69.915818 9.717804 -10.871382 77.780209 -6.139979 -13.857846 -6.304585 0.000000 0.000000 0.000000 6.230889 -13.281846 60.375736 -5.415293 1.876633 -28.423788 7.302705 6.945716 24.301403 7.238534 -1.041564 -23.637335 0.000000 0.000000 0.000000 -2.867988 -29.676734 10.576271 1.685197 -25.007003 -2.817345 18.235635 -8.948533 -1.359206 0.000000 0.000000 0.000000 29.928808 35.033703 27.975858 -16.244570 45.791687 -10.039634 -14.790381 -0.027130 0.245065 0.000000 0.000000 0.000000 
0.002512 0.773921 -0.006128 3.147845 15.968580 14.836092 21.894440 -0.105302 -40.199002 -37.940668 17.949066 54.751162 19.980015 39.961627 0.324180 0.000000 0.000000 0.000000 -8.367655 -4.841546 -66.285648 9.442078 -9.914042 73.819893 -6.937149 -15.971437 -8.084559 0.000000 0.000000 0.000000 5.526942 -11.564014 58.688674 -3.623362 1.586109 -27.103255 6.563709 7.879703 24.208677 8.645397 -1.921808 -22.794948 0.000000 0.000000 0.000000 -4.006363 -28.203352 9.970394 -1.086542 -25.707532 -2.536674 19.642885 -10.711768 -1.777331 0.000000 0.000000 0.000000 30.733091 32.590915 26.774783 -11.832649 48.967916 -9.382911 -17.938340 4.063366 -0.205354 0.000000 0.000000 0.000000 
0.004251 0.798035 -0.010094 3.297279 15.656807 14.162094 21.064346 -0.208832 -37.463775 -37.691973 16.565625 51.297032 19.458549 37.661460 3.801825 0.000000 0.000000 0.000000 -8.848517 -4.604023 -63.909548 9.407891 -9.458421 70.383152 -5.637832 -12.941510 -4.349265 0.000000 0.000000 0.000000 5.102850 -11.361553 59.536578 -2.854210 1.448788 -27.281588 5.731714 8.526369 22.713241 8.115630 -1.405637 -23.476978 0.000000 0.000000 0.000000 -2.211489 -24.997851 8.520028 -1.976579 -25.535964 -2.359845 18.052824 -11.217810 -1.705577 0.000000 0.000000 0.000000 31.765128 31.436680 26.410616 -9.828461 51.979878 -9.279728 -18.971871 5.381690 -0.364397 0.000000 0.000000 0.000000 
0.006443 0.821262 -0.015026 4.064880 16.875414 14.253516 18.268855 -0.950240 -34.827304 -35.780531 13.364458 46.524491 20.609601 39.339792 4.245758 0.000000 0.000000 0.000000 -9.845537 -5.111029 -60.224821 8.746230 -8.692694 65.108710 -4.718709 -10.896677 -2.393568 0.000000 0.000000 0.000000 5.886860 -11.824103 57.963610 -2.301890 1.369388 -27.014885 4.897482 9.146729 23.024695 9.296490 -1.979708 -23.177501 0.000000 0.000000 0.000000 -1.204934 -26.522789 8.901914 -1.613261 -25.328826 -2.418129 19.473937 -11.475346 -1.973466 0.000000 0.000000 0.000000 28.760472 30.331397 24.659263 -4.376576 54.059406 -7.251927 -20.923035 5.247649 -0.331320 0.000000 0.000000 0.000000 
0.008283 0.840435 -0.020626 4.546703 18.145395 14.728947 17.206932 -1.313415 -33.904833 -34.413834 11.262026 42.706903 20.194925 38.280776 5.337250 0.000000 0.000000 0.000000 -10.811595 -5.832552 -58.241139 8.304066 -8.363338 62.286237 -3.149772 -7.182468 -1.425775 0.000000 0.000000 0.000000 6.894040 -12.412331 56.334910 -3.072651 1.522967 -26.365526 5.054682 9.340719 23.590306 8.290197 -0.816556 -25.806821 0.000000 0.000000 0.000000 2.666529 -24.680731 8.035623 -4.807548 -28.899497 -2.420304 22.538750 -13.028720 -2.762390 0.000000 0.000000 0.000000 25.508780 28.614471 22.391800 0.454711 56.833079 -5.219694 -22.363063 6.870843 -0.557749 0.000000 0.000000 0.000000 
0.009936 0.853735 -0.026632 5.217694 19.652092 15.360819 15.264532 -1.907626 -34.360084 -32.694743 9.676452 41.255856 19.304061 37.122942 4.855631 0.000000 0.000000 0.000000 -11.998655 -6.789247 -56.687796 8.063365 -8.242417 59.813844 -2.645556 -6.014716 -1.005279 0.000000 0.000000 0.000000 7.359873 -12.745731 54.935848 -3.292781 1.584664 -25.961569 5.448315 9.813251 23.591436 8.576930 -0.713984 -26.322669 0.000000 0.000000 0.000000 3.600277 -23.720095 7.688773 -5.790958 -31.590042 -2.587790 26.978284 -13.931121 -3.732465 0.000000 0.000000 0.000000 23.843273 28.194723 21.798538 2.752520 57.310362 -4.026809 -23.231601 5.908445 -0.372997 0.000000 0.000000 0.000000 
